<svg width="21" height="21" viewBox="0 0 21 21" fill="none" xmlns="http://www.w3.org/2000/svg">
<g clip-path="url(#clip0_171_5002)">
<path d="M20.8286 5.82416C20.7066 5.65091 20.5077 5.54722 20.2958 5.54722H6.36816L5.31357 1.9116C4.90013 0.479658 3.91773 0.325439 3.51479 0.325439H0.703414C0.343133 0.325439 0.0517578 0.617471 0.0517578 0.977096C0.0517578 1.33672 0.343789 1.62875 0.703414 1.62875H3.51413C3.60338 1.62875 3.87441 1.62875 4.05948 2.26794L7.68657 15.597C7.76532 15.8779 8.02191 16.0722 8.31394 16.0722H17.1727C17.4476 16.0722 17.6931 15.9002 17.7856 15.641L20.908 6.41872C20.9802 6.21922 20.95 5.99675 20.828 5.8235L20.8286 5.82416ZM16.7146 14.7695H8.80941L6.73501 6.85119H19.3698L16.7146 14.7695ZM15.4218 17.3932C14.5155 17.3932 13.7812 18.1275 13.7812 19.0338C13.7812 19.9401 14.5155 20.6744 15.4218 20.6744C16.3281 20.6744 17.0624 19.9401 17.0624 19.0338C17.0624 18.1275 16.3281 17.3932 15.4218 17.3932ZM9.51554 17.3932C8.60926 17.3932 7.87491 18.1275 7.87491 19.0338C7.87491 19.9401 8.60926 20.6744 9.51554 20.6744C10.4218 20.6744 11.1562 19.9401 11.1562 19.0338C11.1562 18.1275 10.4218 17.3932 9.51554 17.3932Z" fill="#F8F8F8"/>
</g>
<defs>
<clipPath id="clip0_171_5002">
<rect width="21" height="21" fill="white"/>
</clipPath>
</defs>
</svg>
