<svg xmlns="http://www.w3.org/2000/svg" width="22" height="22" viewBox="0 0 22 22" fill="none">
  <g clip-path="url(#clip0_179_637)">
    <path d="M21.357 6.32416C21.2349 6.15091 21.036 6.04722 20.8241 6.04722H6.89648L5.84189 2.4116C5.42845 0.979658 4.44605 0.825439 4.04311 0.825439H1.23173C0.871453 0.825439 0.580078 1.11747 0.580078 1.4771C0.580078 1.83672 0.872109 2.12875 1.23173 2.12875H4.04245C4.1317 2.12875 4.40273 2.12875 4.5878 2.76794L8.21489 16.097C8.29364 16.3779 8.55023 16.5722 8.84227 16.5722H17.701C17.976 16.5722 18.2214 16.4002 18.3139 16.141L21.4364 6.91872C21.5085 6.71922 21.4784 6.49675 21.3563 6.3235L21.357 6.32416ZM17.2429 15.2695H9.33773L7.26333 7.35119H19.8981L17.2429 15.2695ZM15.9501 17.8932C15.0438 17.8932 14.3095 18.6275 14.3095 19.5338C14.3095 20.4401 15.0438 21.1744 15.9501 21.1744C16.8564 21.1744 17.5907 20.4401 17.5907 19.5338C17.5907 18.6275 16.8564 17.8932 15.9501 17.8932ZM10.0439 17.8932C9.13758 17.8932 8.40323 18.6275 8.40323 19.5338C8.40323 20.4401 9.13758 21.1744 10.0439 21.1744C10.9501 21.1744 11.6845 20.4401 11.6845 19.5338C11.6845 18.6275 10.9501 17.8932 10.0439 17.8932Z" fill="#151515"/>
  </g>
  <defs>
    <clipPath id="clip0_179_637">
      <rect width="21" height="21" fill="white" transform="translate(0.528198 0.5)"/>
    </clipPath>
  </defs>
</svg>