<svg width="195" height="122" viewBox="0 0 195 122" fill="none" xmlns="http://www.w3.org/2000/svg">
<path d="M37.8496 3.36743L4.31586 2.35815L0.924194 116.993L32.2698 117.929C62.886 118.846 77.7017 99.0921 78.8232 61.1252C79.9082 24.4428 67.3717 4.23907 37.8405 3.35825L37.8496 3.36743ZM47.4502 61.2903C46.7482 85.1366 43.785 92.752 34.1206 92.4676L32.2971 92.4125L34.1753 28.7643L35.8165 28.8102C46.0188 29.113 48.1523 37.444 47.4411 61.2812L47.4502 61.2903Z" fill="#2A2A2A"/>
<path d="M78.1666 119.699L108.646 121.846L120.344 44.6832L89.8734 42.5454L78.1666 119.699Z" fill="#2A2A2A"/>
<path d="M123.297 0L118.702 26.5713L139.007 30.1313L124.072 116.543L154.251 121.819L169.185 35.407L189.49 38.9578L194.076 12.3865L123.297 0Z" fill="#2A2A2A"/>
<path d="M90.612 2.87195C81.0296 5.13822 76.3524 13.2124 78.8141 23.7547C81.2302 34.1134 89.0347 39.435 98.6171 37.1688C108.199 34.9025 112.877 26.8283 110.415 16.2861C107.999 5.92728 100.204 0.605681 90.612 2.87195Z" fill="#2A2A2A"/>
</svg>
