<svg width="54" height="55" viewBox="0 0 54 55" fill="none" xmlns="http://www.w3.org/2000/svg">
<g clip-path="url(#clip0_2007_505)">
<path d="M10.2376 12.5859L0.940344 12.3079L0 43.8903L8.6906 44.1481C17.179 44.4009 21.2867 38.9585 21.5976 28.4985C21.8984 18.3923 18.4226 12.8261 10.2351 12.5834L10.2376 12.5859ZM12.8994 28.544C12.7048 35.1138 11.8832 37.2118 9.20374 37.1335L8.69818 37.1183L9.21891 19.5829L9.67391 19.5956C12.5025 19.679 13.094 21.9742 12.8969 28.5415L12.8994 28.544Z" fill="#2A2A2A"/>
<path d="M21.4155 44.636L29.866 45.2275L33.1092 23.9687L24.6612 23.3797L21.4155 44.636Z" fill="#2A2A2A"/>
<path d="M33.9283 11.6582L32.6543 18.9788L38.2837 19.9596L34.1432 43.7664L42.5102 45.2199L46.6508 21.413L52.2802 22.3913L53.5517 15.0708L33.9283 11.6582Z" fill="#2A2A2A"/>
<path d="M24.8658 12.4494C22.2091 13.0738 20.9124 15.2983 21.5949 18.2027C22.2647 21.0566 24.4285 22.5228 27.0853 21.8984C29.742 21.274 31.0387 19.0495 30.3562 16.1451C29.6864 13.2912 27.5251 11.8251 24.8658 12.4494Z" fill="#2A2A2A"/>
<path d="M1.73662 4.8913H3.25331V3.95602H1.73662V1.04398H3.66534V0.108696H0.728027V8.99141H1.73662V4.8913Z" fill="#2A2A2A"/>
<path d="M5.33865 9.06471C6.35735 9.06471 6.95139 8.32407 6.95139 6.96663V2.06269C6.95139 0.776036 6.40538 0 5.32601 0C4.24663 0 3.68799 0.801315 3.68799 2.07533V6.96663C3.68799 8.28868 4.26938 9.06471 5.33865 9.06471ZM4.70922 2.05005C4.70922 1.24874 4.87858 0.9454 5.3159 0.9454C5.75321 0.9454 5.93521 1.22346 5.93521 2.02477V7.08544C5.93521 7.80081 5.75321 8.11679 5.34117 8.11679C4.88111 8.11679 4.70922 7.80081 4.70922 6.95147V2.05005Z" fill="#2A2A2A"/>
<path d="M8.35953 5.08342H8.8575L9.82818 8.9914H10.8241L9.79279 4.818C10.3514 4.46663 10.5562 4.00404 10.5562 3.08392V2.18655C10.5562 0.80384 10.0102 0.111221 8.91817 0.111221H7.34082V8.99393H8.35953V5.08594V5.08342ZM8.35953 1.06673H8.69825C9.40098 1.06673 9.51221 1.27401 9.51221 2.81345C9.51221 3.90546 9.35548 4.14813 8.62747 4.14813H8.35953V1.06673Z" fill="#2A2A2A"/>
<path d="M13.8929 8.99141H14.7549L15.0329 6.6001H16.2463L16.5243 8.99141H17.4697L16.3069 0.108696H14.9596L13.8929 8.33418V8.04348H12.0476V0.108696H11.0415V8.99141H13.8929ZM15.6396 0.970678L16.1376 5.71537H15.1315L15.6421 0.970678H15.6396Z" fill="#2A2A2A"/>
<path d="M19.1354 9.06471C20.1414 9.06471 20.7254 8.33671 20.7254 7.2093V4.46664H18.966V5.41203H19.7193V7.00202C19.7193 7.76542 19.5853 8.10667 19.1379 8.10667C18.6905 8.10667 18.4958 7.76795 18.4958 7.0273V1.92872C18.4958 1.28666 18.7031 0.945402 19.1025 0.945402C19.5019 0.945402 19.6839 1.24874 19.6839 1.95147V3.68807H20.69V1.96411C20.69 0.690093 20.0959 -0.00252533 19.0772 -0.00252533C18.0585 -0.00252533 17.4746 0.725483 17.4746 1.90344V7.16886C17.4746 8.35693 18.0939 9.06218 19.1379 9.06218L19.1354 9.06471Z" fill="#2A2A2A"/>
<path d="M24.1454 8.04601H22.1687V4.8913H23.7562V3.96866H22.1687V1.05662H24.0115V1.03135H25.3335V8.99141H26.3421V1.03135H27.7501V0.108696H24.0115H23.9382H21.1475V8.99141H24.1454V8.04601Z" fill="#2A2A2A"/>
<path d="M2.16402 48.276H1.03662V54.9368H2.19183C3.09173 54.9368 3.44815 54.4717 3.44815 53.2533V50.0152C3.44815 48.769 3.09426 48.276 2.16402 48.276ZM2.67211 53.3974C2.67211 54.0622 2.5533 54.2265 2.1438 54.2265H1.78991V48.9762H2.13622C2.55583 48.9762 2.67211 49.1759 2.67211 49.8686V53.3999V53.3974Z" fill="#2A2A2A"/>
<path d="M5.94019 48.276L5.07568 54.9368H5.786L5.9958 53.1446H6.90581L7.11562 54.9368H7.82594L6.95132 48.276H5.94019ZM6.06658 52.4798L6.44828 48.9232L6.8224 52.4798H6.06658Z" fill="#2A2A2A"/>
<path d="M11.2717 52.3964H11.2363L10.253 48.276H9.6084V54.9368H10.2631V50.8038H10.2909L11.2894 54.9368H11.9188V48.276H11.2717V52.3964Z" fill="#2A2A2A"/>
<path d="M15.4044 51.269C14.7042 50.5511 14.6031 50.3413 14.6031 49.6587C14.6031 49.1405 14.7396 48.913 15.0682 48.913C15.4146 48.913 15.5334 49.186 15.5334 50.0227V50.5334H16.2336V49.7599C16.2336 48.7588 15.8241 48.2027 15.0682 48.2027C14.3124 48.2027 13.8574 48.7588 13.8574 49.7497C13.8574 50.7406 14.2113 51.1502 14.9317 51.9161C15.4044 52.4065 15.6244 52.6618 15.6244 53.3898C15.6244 53.9813 15.4702 54.2998 15.1415 54.2998C14.7497 54.2998 14.5778 53.9712 14.5778 53.2887V52.5253H13.86V53.2887C13.86 54.4363 14.2973 55 15.1618 55C16.0996 55 16.3726 54.1001 16.3726 53.3342C16.3726 52.5152 16.2007 52.1057 15.5991 51.4687L15.407 51.269H15.4044Z" fill="#2A2A2A"/>
<path d="M20.7455 48.276H19.9998L19.0721 50.996V48.276H18.3062V54.9368H19.0721V51.633L20.063 54.9368H20.8264L19.7091 51.2513L20.7455 48.276Z" fill="#2A2A2A"/>
<path d="M26.0593 48.276H25.2959V54.9368H26.0593V48.276Z" fill="#2A2A2A"/>
<path d="M29.7095 48.9661H30.756V54.9368H31.5118V48.9661H32.5659V48.276H29.7095V48.9661Z" fill="#2A2A2A"/>
<path d="M35.0305 48.276H34.2671V54.9368H35.0305V48.276Z" fill="#2A2A2A"/>
<path d="M38.0888 48.276H36.9614V54.9368H38.1166C39.0165 54.9368 39.373 54.4717 39.373 53.2533V50.0152C39.373 48.769 39.0191 48.276 38.0888 48.276ZM38.5994 53.3974C38.5994 54.0622 38.4806 54.2265 38.0711 54.2265H37.7172V48.9762H38.0635C38.4832 48.9762 38.5994 49.1759 38.5994 49.8686V53.3999V53.3974Z" fill="#2A2A2A"/>
<path d="M42.1032 51.8605H43.2938V51.1678H42.1032V48.9863H43.486V48.276H41.3398V54.9368H43.5871V54.2265H42.1032V51.8605Z" fill="#2A2A2A"/>
<path d="M47.007 52.3964H46.9717L45.9883 48.276H45.3438V54.9368H45.9985V50.8038H46.0263L47.0247 54.9368H47.6542V48.276H47.007V52.3964Z" fill="#2A2A2A"/>
</g>
<defs>
<clipPath id="clip0_2007_505">
<rect width="53.5516" height="55" fill="white"/>
</clipPath>
</defs>
</svg>
