<svg width="58" height="50" viewBox="0 0 58 50" fill="none" xmlns="http://www.w3.org/2000/svg">
<g id="Vector">
<path d="M55.7105 12.1837C54.4141 12.1837 53.7112 11.4183 53.7112 10.1062V4.60794H52.5084V3.90503H53.7112V2.04624H54.539V3.90503H56.679V4.60794H54.539V10.0437C54.539 11.0278 55.0076 11.4808 55.7574 11.4808C56.1791 11.4808 56.5072 11.4027 56.7883 11.309V12.0119C56.5228 12.1056 56.2104 12.1837 55.7105 12.1837Z" fill="#F8F8F8"/>
<path d="M48.0143 12.1993C45.6557 12.1993 44.1405 10.528 44.1405 8.0756V7.95064C44.1405 5.48266 45.7026 3.78007 47.8894 3.78007C49.8575 3.78007 51.4664 5.06092 51.4664 7.7632V8.05998H44.9997C45.0309 10.2468 46.0774 11.4964 48.0143 11.4964C49.3733 11.4964 50.2949 10.9341 50.576 9.79381H51.4039C51.0603 11.3558 49.7638 12.1993 48.0143 12.1993ZM45.0309 7.38832H50.6073C50.5292 5.40456 49.4826 4.48297 47.8894 4.48297C46.3117 4.48297 45.1871 5.60762 45.0309 7.38832Z" fill="#F8F8F8"/>
<path d="M38.4032 15.0109C36.0446 15.0109 34.9512 13.855 34.7481 12.543H35.5916C35.8103 13.5895 36.685 14.308 38.3876 14.308C40.137 14.308 41.3554 13.5114 41.3554 11.4964V9.82506C40.918 10.8091 39.7778 11.8088 38.2626 11.8088C36.1852 11.8088 34.5763 10.278 34.5763 7.90378V7.79444C34.5763 5.46704 36.2164 3.78007 38.372 3.78007C39.9808 3.78007 40.8868 4.67042 41.3554 5.6701V3.90503H42.1833V11.5276C42.1677 13.9331 40.59 15.0109 38.4032 15.0109ZM38.3407 11.1059C39.9965 11.1059 41.371 9.90316 41.371 7.85692V7.73196C41.371 5.6701 40.1527 4.48297 38.4501 4.48297C36.7006 4.48297 35.4354 5.73258 35.4354 7.7632V7.88816C35.4354 9.91878 36.7162 11.1059 38.3407 11.1059Z" fill="#F8F8F8"/>
<path d="M29.089 12.1993C27.4801 12.1993 26.3242 11.4183 26.3242 9.87192C26.3242 7.98188 28.1362 7.40394 30.1511 7.40394H31.8537V6.66979C31.8537 5.13902 31.2289 4.48297 29.7919 4.48297C28.5579 4.48297 27.6832 5.01406 27.4957 6.21681H26.6835C26.8709 4.49859 28.2767 3.78007 29.8231 3.78007C31.5257 3.78007 32.6816 4.59232 32.6816 6.66979V12.0744H31.8537V10.8247C31.3383 11.6214 30.4636 12.1993 29.089 12.1993ZM29.1515 11.5276C30.651 11.5276 31.8537 10.6529 31.8537 9.43455V8.04436H30.1824C28.4798 8.04436 27.1521 8.40362 27.1521 9.87192C27.1521 10.9185 27.8081 11.5276 29.1515 11.5276Z" fill="#F8F8F8"/>
<path d="M23.4864 12.0744V0H24.3298V12.0744H23.4864Z" fill="#F8F8F8"/>
<path d="M18.0247 12.0744V3.90503H18.8526V5.62324C19.3055 4.62356 20.1178 3.84255 21.6173 3.79569V4.5767C20.0397 4.63918 18.8526 5.37332 18.8526 7.54452V12.0744H18.0247Z" fill="#F8F8F8"/>
<path d="M12.1231 12.1993C9.90504 12.1993 8.18682 10.4655 8.18682 8.05998V7.93502C8.18682 5.48266 9.9519 3.78007 12.1387 3.78007C14.3411 3.78007 16.075 5.4358 16.075 7.9194V8.04436C16.075 10.5123 14.3255 12.1993 12.1231 12.1993ZM12.1387 11.4964C13.8882 11.4964 15.2159 10.1687 15.2159 8.05998V7.93502C15.2159 5.77944 13.8725 4.48297 12.1387 4.48297C10.3893 4.48297 9.04593 5.81068 9.04593 7.93502V8.05998C9.04593 10.1531 10.358 11.4964 12.1387 11.4964Z" fill="#F8F8F8"/>
<path d="M1.09639 12.0744V0.905967H7.45378V1.62449H1.97111V6.06061H6.28227V6.77913H1.97111V12.0744H1.09639Z" fill="#F8F8F8"/>
<path d="M45.9901 50V22.1337H36.743V20.2176H57.5282V22.1337H48.281V50H45.9901Z" fill="#F8F8F8"/>
<path d="M29.1204 50V20.2176H31.453V50H29.1204Z" fill="#F8F8F8"/>
<path d="M0.356567 50V20.2176H8.10415C17.9344 20.2176 22.9328 26.549 22.9328 34.8381V35.213C22.9328 43.4604 18.1843 50 8.02084 50H0.356567ZM2.68917 48.0839H7.93753C16.3932 48.0839 20.5169 42.7523 20.5169 35.1713V34.8381C20.5169 27.507 16.6431 22.1337 7.89588 22.1337H2.68917V48.0839Z" fill="#F8F8F8"/>
</g>
</svg>
