<svg width="36" height="37" viewBox="0 0 36 37" fill="none" xmlns="http://www.w3.org/2000/svg">
<g clip-path="url(#clip0_64_1901)">
<path d="M6.88223 8.46684L0.632145 8.27979L0 29.5261L5.84225 29.6996C11.5485 29.8696 14.3099 26.2084 14.519 19.1716C14.7212 12.3729 12.3846 8.62839 6.88053 8.46514L6.88223 8.46684ZM8.67161 19.2023C8.54076 23.6219 7.98848 25.0333 6.18721 24.9806L5.84734 24.9704L6.1974 13.1739L6.50328 13.1824C8.40481 13.2385 8.80245 14.7826 8.66991 19.2006L8.67161 19.2023Z" fill="#F8F8F8"/>
<path d="M14.3965 30.0277L20.0773 30.4257L22.2575 16.1242L16.5784 15.728L14.3965 30.0277Z" fill="#F8F8F8"/>
<path d="M22.8081 7.84277L21.9517 12.7675L25.736 13.4273L22.9526 29.4428L28.5773 30.4206L31.3608 14.4051L35.1451 15.0632L35.9999 10.1385L22.8081 7.84277Z" fill="#F8F8F8"/>
<path d="M16.7163 8.37502C14.9303 8.79505 14.0586 10.2915 14.5174 12.2454C14.9677 14.1653 16.4223 15.1516 18.2083 14.7316C19.9943 14.3116 20.866 12.8151 20.4072 10.8612C19.9569 8.9413 18.504 7.95499 16.7163 8.37502Z" fill="#F8F8F8"/>
<path d="M1.16753 3.29063H2.18712V2.66144H1.16753V0.702436H2.46411V0.0732422H0.489502V6.04888H1.16753V3.29063Z" fill="#F8F8F8"/>
<path d="M3.5889 6.09808C4.27373 6.09808 4.67306 5.59983 4.67306 4.68664V1.38763C4.67306 0.522061 4.30601 0 3.5804 0C2.8548 0 2.47925 0.539066 2.47925 1.39613V4.68664C2.47925 5.57602 2.87009 6.09808 3.5889 6.09808ZM3.16577 1.37912C3.16577 0.840059 3.27963 0.635996 3.57361 0.635996C3.86759 0.635996 3.98994 0.823054 3.98994 1.36212V4.76657C3.98994 5.24782 3.86759 5.46038 3.5906 5.46038C3.28132 5.46038 3.16577 5.24782 3.16577 4.67644V1.37912Z" fill="#F8F8F8"/>
<path d="M5.61964 3.41964H5.9544L6.60694 6.04865H7.27647L6.58315 3.24108C6.9587 3.00471 7.09634 2.69351 7.09634 2.07452V1.47084C7.09634 0.540651 6.72929 0.074707 5.99519 0.074707H4.93481V6.05035H5.61964V3.42134V3.41964ZM5.61964 0.717505H5.84735C6.31976 0.717505 6.39453 0.856948 6.39453 1.89257C6.39453 2.62719 6.28917 2.79044 5.79977 2.79044H5.61964V0.717505Z" fill="#F8F8F8"/>
<path d="M9.33944 6.04888H9.9189L10.1058 4.44019H10.9215L11.1084 6.04888H11.744L10.9623 0.0732422H10.0565L9.33944 5.60675V5.41119H8.09893V0.0732422H7.42261V6.04888H9.33944ZM10.5137 0.653121L10.8484 3.845H10.1721L10.5154 0.653121H10.5137Z" fill="#F8F8F8"/>
<path d="M12.8638 6.09831C13.5401 6.09831 13.9326 5.60856 13.9326 4.85013V3.00506H12.7499V3.64106H13.2563V4.71069C13.2563 5.22425 13.1662 5.45381 12.8655 5.45381C12.5647 5.45381 12.4338 5.22594 12.4338 4.72769V1.29774C12.4338 0.865802 12.5732 0.636232 12.8417 0.636232C13.1102 0.636232 13.2325 0.840294 13.2325 1.31304V2.4813H13.9088V1.32154C13.9088 0.464479 13.5095 -0.00146484 12.8247 -0.00146484C12.1399 -0.00146484 11.7473 0.488286 11.7473 1.28073V4.82292C11.7473 5.62217 12.1636 6.09661 12.8655 6.09661L12.8638 6.09831Z" fill="#F8F8F8"/>
<path d="M16.2319 5.41289H14.9031V3.29063H15.9702V2.66994H14.9031V0.710939H16.1419V0.693933H17.0306V6.04888H17.7086V0.693933H18.6552V0.0732422H16.1419H16.0926H14.2166V6.04888H16.2319V5.41289Z" fill="#F8F8F8"/>
<path d="M1.45467 32.4766H0.696777V36.9574H1.47336C2.07832 36.9574 2.31792 36.6445 2.31792 35.8249V33.6465C2.31792 32.8082 2.08002 32.4766 1.45467 32.4766ZM1.79623 35.9218C1.79623 36.3691 1.71637 36.4796 1.44108 36.4796H1.20317V32.9476H1.43598C1.71807 32.9476 1.79623 33.0819 1.79623 33.5479V35.9235V35.9218Z" fill="#F8F8F8"/>
<path d="M3.99328 32.4766L3.41211 36.9574H3.88962L4.03066 35.7518H4.64241L4.78346 36.9574H5.26096L4.673 32.4766H3.99328ZM4.07824 35.3045L4.33484 32.9119L4.58634 35.3045H4.07824Z" fill="#F8F8F8"/>
<path d="M7.57713 35.2484H7.55334L6.89231 32.4766H6.45898V36.9574H6.89911V34.1771H6.9178L7.58903 36.9574H8.01216V32.4766H7.57713V35.2484Z" fill="#F8F8F8"/>
<path d="M10.3557 34.49C9.88494 34.007 9.81697 33.8659 9.81697 33.4067C9.81697 33.0581 9.90874 32.9051 10.1296 32.9051C10.3625 32.9051 10.4423 33.0887 10.4423 33.6516V33.9951H10.913V33.4748C10.913 32.8014 10.6377 32.4272 10.1296 32.4272C9.62155 32.4272 9.31567 32.8014 9.31567 33.468C9.31567 34.1346 9.55358 34.4101 10.0379 34.9253C10.3557 35.2552 10.5035 35.427 10.5035 35.9167C10.5035 36.3146 10.3998 36.5289 10.1789 36.5289C9.91553 36.5289 9.79998 36.3078 9.79998 35.8487V35.3351H9.31737V35.8487C9.31737 36.6207 9.61135 37 10.1925 37C10.823 37 11.0065 36.3946 11.0065 35.8793C11.0065 35.3283 10.8909 35.0529 10.4865 34.6243L10.3574 34.49H10.3557Z" fill="#F8F8F8"/>
<path d="M13.9462 32.4766H13.4449L12.8213 34.3063V32.4766H12.3064V36.9574H12.8213V34.7349L13.4874 36.9574H14.0006L13.2495 34.4781L13.9462 32.4766Z" fill="#F8F8F8"/>
<path d="M17.5183 32.4766H17.0051V36.9574H17.5183V32.4766Z" fill="#F8F8F8"/>
<path d="M19.9722 32.9408H20.6757V36.9574H21.1838V32.9408H21.8924V32.4766H19.9722V32.9408Z" fill="#F8F8F8"/>
<path d="M23.5491 32.4766H23.0359V36.9574H23.5491V32.4766Z" fill="#F8F8F8"/>
<path d="M25.6053 32.4766H24.8474V36.9574H25.624C26.229 36.9574 26.4686 36.6445 26.4686 35.8249V33.6465C26.4686 32.8082 26.2307 32.4766 25.6053 32.4766ZM25.9486 35.9218C25.9486 36.3691 25.8687 36.4796 25.5934 36.4796H25.3555V32.9476H25.5883C25.8704 32.9476 25.9486 33.0819 25.9486 33.5479V35.9235V35.9218Z" fill="#F8F8F8"/>
<path d="M28.3037 34.8879H29.1041V34.422H28.3037V32.9544H29.2332V32.4766H27.7905V36.9574H29.3012V36.4796H28.3037V34.8879Z" fill="#F8F8F8"/>
<path d="M31.6006 35.2484H31.5768L30.9157 32.4766H30.4824V36.9574H30.9225V34.1771H30.9412L31.6125 36.9574H32.0356V32.4766H31.6006V35.2484Z" fill="#F8F8F8"/>
</g>
<defs>
<clipPath id="clip0_64_1901">
<rect width="36" height="37" fill="white"/>
</clipPath>
</defs>
</svg>
